<?xml version="1.0" encoding="UTF-8"?>
<!DOCTYPE svg PUBLIC "-//W3C//DTD SVG 1.1//EN" "http://www.w3.org/Graphics/SVG/1.1/DTD/svg11.dtd">
<svg xmlns="http://www.w3.org/2000/svg" version="1.1" width="263px" height="81px" style="shape-rendering:geometricPrecision; text-rendering:geometricPrecision; image-rendering:optimizeQuality; fill-rule:evenodd; clip-rule:evenodd" xmlns:xlink="http://www.w3.org/1999/xlink">
<g><path style="opacity:1" fill="#1f2124" d="M -0.5,-0.5 C 87.1667,-0.5 174.833,-0.5 262.5,-0.5C 262.5,26.5 262.5,53.5 262.5,80.5C 174.833,80.5 87.1667,80.5 -0.5,80.5C -0.5,53.5 -0.5,26.5 -0.5,-0.5 Z"/></g>
<g><path style="opacity:1" fill="#efeff0" d="M 46.5,17.5 C 55.8074,16.9694 58.6408,20.9694 55,29.5C 52.1314,32.2679 48.7981,34.2679 45,35.5C 45.5165,47.9839 39.5165,54.3172 27,54.5C 17.5644,53.457 14.7311,48.6236 18.5,40C 21.2162,37.8489 23.7162,38.0155 26,40.5C 25.3809,43.7082 24.8809,47.0415 24.5,50.5C 32.2482,51.2515 35.9149,47.7515 35.5,40C 35.1667,38.1667 34.8333,36.3333 34.5,34.5C 29.9378,32.6121 27.2712,29.2787 26.5,24.5C 27.552,24.3505 28.552,24.5172 29.5,25C 30.4277,28.7636 32.7611,30.9303 36.5,31.5C 37.1382,24.8682 40.4715,20.2016 46.5,17.5 Z"/></g>
<g><path style="opacity:1" fill="#f0f0f1" d="M 168.5,17.5 C 180.538,18.1924 182.538,23.0257 174.5,32C 172.35,33.4114 170.016,34.2447 167.5,34.5C 166.741,52.0346 158.075,57.8679 141.5,52C 140.54,50.5806 139.707,49.0806 139,47.5C 128.983,56.9562 125.317,55.2896 128,42.5C 124.79,47.5897 120.456,51.2563 115,53.5C 112.36,53.5267 111.027,52.1934 111,49.5C 104.829,55.748 101.162,54.748 100,46.5C 90.3982,57.0511 86.7315,55.7177 89,42.5C 84.9003,49.7962 78.7336,53.2962 70.5,53C 68.683,51.2002 67.5163,49.0336 67,46.5C 63.3446,47.5328 60.1779,49.3661 57.5,52C 50.0941,55.1078 46.0941,52.6078 45.5,44.5C 48.6916,39.1416 53.025,34.975 58.5,32C 61.3471,31.0561 63.8471,31.5561 66,33.5C 66.5417,36.7981 66.0417,39.9648 64.5,43C 64.8333,43.5 65.1667,44 65.5,44.5C 69.325,39.8424 73.6583,35.6757 78.5,32C 84.7045,30.3142 87.5379,32.4809 87,38.5C 85.5557,40.1554 83.7224,40.822 81.5,40.5C 82.861,34.2714 81.6944,33.9381 78,39.5C 75.9937,42.5358 75.1604,45.8691 75.5,49.5C 78.5158,49.1594 81.1825,47.9927 83.5,46C 86.9255,41.1518 90.5922,36.4851 94.5,32C 97.1473,31.8436 98.8139,33.1769 99.5,36C 98.1667,39 96.8333,42 95.5,45C 95.8333,45.5 96.1667,46 96.5,46.5C 101.019,42.8148 105.019,38.6482 108.5,34C 111.599,31.6113 114.933,31.1113 118.5,32.5C 119.631,31.2485 120.964,30.2485 122.5,29.5C 124.461,30.0794 125.461,31.4128 125.5,33.5C 124.53,36.7737 123.03,39.7737 121,42.5C 120.219,43.9437 120.386,45.277 121.5,46.5C 124.854,43.9795 127.688,40.9795 130,37.5C 134.031,31.634 137.864,25.634 141.5,19.5C 144.257,21.0876 145.09,23.421 144,26.5C 141.304,32.7264 138.47,38.8931 135.5,45C 135.833,45.5 136.167,46 136.5,46.5C 138.38,43.9087 140.38,41.4087 142.5,39C 145.857,37.8588 147.857,39.0254 148.5,42.5C 144.685,48.7842 146.352,51.2842 153.5,50C 157.07,47.3224 158.737,43.6557 158.5,39C 158.167,37.5 157.833,36 157.5,34.5C 152.338,33.0095 149.338,29.6762 148.5,24.5C 149.833,24.5 151.167,24.5 152.5,24.5C 152.452,28.0753 154.119,30.4086 157.5,31.5C 159.771,25.5655 163.438,20.8989 168.5,17.5 Z"/></g>
<g><path style="opacity:1" fill="#f3f3f3" d="M 99.5,20.5 C 101.5,20.5 103.5,20.5 105.5,20.5C 106.359,26.8145 103.692,29.4811 97.5,28.5C 97.1072,25.4867 97.7739,22.8201 99.5,20.5 Z"/></g>
<g><path style="opacity:1" fill="#292b2e" d="M 48.5,20.5 C 49.8221,20.33 50.9887,20.6634 52,21.5C 53.0779,26.9517 50.9112,30.6183 45.5,32.5C 43.5934,27.6867 44.5934,23.6867 48.5,20.5 Z"/></g>
<g><path style="opacity:1" fill="#292b2e" d="M 170.5,20.5 C 173.352,20.3524 175.019,21.6857 175.5,24.5C 174.568,28.5994 172.068,31.2661 168,32.5C 166.773,27.938 167.607,23.938 170.5,20.5 Z"/></g>
<g><path style="opacity:1" fill="#f1f2f2" d="M 231.5,28.5 C 233.017,28.5106 234.184,29.1772 235,30.5C 233.536,37.0455 235.036,37.8789 239.5,33C 241.473,32.5045 243.473,32.3379 245.5,32.5C 244.754,36.6667 243.421,40.6667 241.5,44.5C 241.667,45.1667 241.833,45.8333 242,46.5C 247.529,41.037 248.362,41.537 244.5,48C 242.167,49.6667 239.833,51.3333 237.5,53C 234.143,54.1412 232.143,52.9746 231.5,49.5C 232.727,46.2685 234.394,43.2685 236.5,40.5C 235.998,39.479 235.332,39.3123 234.5,40C 232.548,42.0739 230.715,44.2406 229,46.5C 226.34,52.4897 223.174,58.1564 219.5,63.5C 216.972,65.8738 213.972,66.8738 210.5,66.5C 212.64,61.5011 215.474,56.8344 219,52.5C 221.6,48.6328 223.6,44.6328 225,40.5C 221.073,46.3706 215.907,50.7039 209.5,53.5C 207.222,53.2186 206.055,51.8852 206,49.5C 203.521,52.6694 200.354,53.836 196.5,53C 194.996,51.5093 194.163,49.676 194,47.5C 190.969,51.2392 187.136,53.0726 182.5,53C 181.513,48.7709 182.513,44.9376 185.5,41.5C 185.167,41.1667 184.833,40.8333 184.5,40.5C 181.009,44.1602 177.676,47.9935 174.5,52C 172.975,53.0086 171.308,53.5086 169.5,53.5C 170.052,49.0592 171.719,45.0592 174.5,41.5C 174.333,41.1667 174.167,40.8333 174,40.5C 172.471,41.7287 171.304,43.2287 170.5,45C 169.668,45.6877 169.002,45.521 168.5,44.5C 171.821,39.8482 175.487,35.5149 179.5,31.5C 181.691,32.8809 183.024,34.8809 183.5,37.5C 185.69,35.476 188.023,33.6427 190.5,32C 194.088,31.3886 195.254,32.8886 194,36.5C 191.585,39.5953 190.752,42.9287 191.5,46.5C 196.019,42.8148 200.019,38.6482 203.5,34C 206.599,31.6113 209.933,31.1113 213.5,32.5C 216.129,28.4312 218.462,28.5978 220.5,33C 219.136,36.2272 217.636,39.3939 216,42.5C 215.333,43.8333 215.333,45.1667 216,46.5C 222.066,41.2679 227.233,35.2679 231.5,28.5 Z"/></g>
<g><path style="opacity:1" fill="#313235" d="M 114.5,36.5 C 116.225,36.8425 116.725,37.8425 116,39.5C 114.75,42.9162 112.583,45.5828 109.5,47.5C 108.417,46.635 108.251,45.635 109,44.5C 110.596,41.6305 112.43,38.9639 114.5,36.5 Z"/></g>
<g><path style="opacity:1" fill="#303235" d="M 209.5,36.5 C 211.225,36.8425 211.725,37.8425 211,39.5C 209.541,42.7564 207.374,45.4231 204.5,47.5C 203.417,46.635 203.251,45.635 204,44.5C 205.596,41.6305 207.43,38.9639 209.5,36.5 Z"/></g>
<g><path style="opacity:1" fill="#27292c" d="M 60.5,35.5 C 62.8398,36.5718 63.1731,38.2385 61.5,40.5C 57.9056,41.8754 56.5723,44.542 57.5,48.5C 56.5,48.5 55.5,48.5 54.5,48.5C 55.1529,43.5285 57.1529,39.1951 60.5,35.5 Z"/></g>
</svg>
